# xmcd CD database file generated by OrangeCD 5.2
#
# Track frame offsets:
#	150
#	10860
#	19939
#	38360
#	51260
#	72533
#	88995
#	100051
#	138854
#	149103
#	177110
#	189191
#	207603
#	227253
#	242881
#	275762
#	284820
#	308877
#	322242
#
# Disc length: 4453 seconds
#
# Revision: 0
# Processed by: cddbd v1.5.1PL0 Copyright (c) Steve Scherf et al.
# Submitted via: OrangeCD 5.2
#
DISCID=22116313
DTITLE=Johnny Cash - The ABC Show Series Volume 8
DYEAR=2000
DGENRE=Country
TTITLE0=Opening/Big River
TTITLE1=The Tennessee Three - Ballad Of Little Fauss And Big Halsy (Instrumenta
TTITLE1=l)
TTITLE2=Waltzing Mathilda
TTITLE3=Johnny Cash and Carl Perkins And Derek and The Dominos - Matchbox
TTITLE4=The Needle
TTITLE5=Opening/When Uncle Bill Quit Dope
TTITLE6=Live For The Good Times
TTITLE7=Ride This Train:Amazing Grace/In The Sweet By And By/Are You Washed In 
TTITLE7=The Blood/Bringing In The Sheaves
TTITLE8=Johnny Cash and Jane Morgan - A Boy Named Sue/A Girl Named Sam
TTITLE9=Medley Of Train Songs
TTITLE10=Opening/I Walk The Line
TTITLE11=Johnny Cash and June Carter Cash - Darlin' Companion/If I Were A Carpent
TTITLE11=er/Jackson
TTITLE12=Johnny Cash and The Tennessee Three, Carl Perkins And Merle Travis - Nas
TTITLE12=hville Cats
TTITLE13=Sunday Morning Coming Down
TTITLE14=Ride This Train: Jambalaya/Louisianna Man/Bayou My Baby
TTITLE15=I'll Take You Home Kathleen
TTITLE16=Johnny Cash and The Statler Brothers, June Carter Cash, Carl Perkins And
TTITLE16=The Carter Family - Medley:Magie/I'm Thinking Tonight Of My Blue Eyes
TTITLE16=/Roswood Casket/Fair And Tender Ladies
TTITLE17=He'll Understand And Say Well Done
TTITLE18=Close Up
EXTD=
EXTT0=
EXTT1=
EXTT2=
EXTT3=
EXTT4=
EXTT5=
EXTT6=
EXTT7=
EXTT8=
EXTT9=
EXTT10=
EXTT11=
EXTT12=
EXTT13=
EXTT14=
EXTT15=
EXTT16=
EXTT17=
EXTT18=
PLAYORDER=
